<svg xmlns="http://www.w3.org/2000/svg" viewBox="0 0 256 256" width="256" height="256">
  <defs>
    <linearGradient id="galaxyBg" x1="0%" y1="0%" x2="100%" y2="100%">
      <stop offset="0%" style="stop-color:#0c0a1a;stop-opacity:1" />
      <stop offset="50%" style="stop-color:#1a1035;stop-opacity:1" />
      <stop offset="100%" style="stop-color:#0f0720;stop-opacity:1" />
    </linearGradient>
    <linearGradient id="galaxyTrunk" x1="0%" y1="100%" x2="0%" y2="0%">
      <stop offset="0%" style="stop-color:#7c3aed;stop-opacity:1" />
      <stop offset="100%" style="stop-color:#a78bfa;stop-opacity:1" />
    </linearGradient>
    <radialGradient id="nebulaGrad" cx="50%" cy="50%" r="50%">
      <stop offset="0%" style="stop-color:#a78bfa;stop-opacity:0.3" />
      <stop offset="100%" style="stop-color:#7c3aed;stop-opacity:0" />
    </radialGradient>
    <filter id="galaxyGlow">
      <feGaussianBlur stdDeviation="4" result="coloredBlur"/>
      <feMerge>
        <feMergeNode in="coloredBlur"/>
        <feMergeNode in="SourceGraphic"/>
      </feMerge>
    </filter>
    <filter id="starGlow2">
      <feGaussianBlur stdDeviation="2" result="coloredBlur"/>
      <feMerge>
        <feMergeNode in="coloredBlur"/>
        <feMergeNode in="SourceGraphic"/>
      </feMerge>
    </filter>
  </defs>
  <rect width="256" height="256" fill="url(#galaxyBg)"/>
  <circle cx="128" cy="100" r="80" fill="url(#nebulaGrad)"/>
  <circle cx="20" cy="20" r="1" fill="#f8fafc" opacity="0.7"/>
  <circle cx="240" cy="30" r="1.5" fill="#f8fafc" opacity="0.8"/>
  <circle cx="30" cy="80" r="1" fill="#f8fafc" opacity="0.6"/>
  <circle cx="220" cy="100" r="1" fill="#f8fafc" opacity="0.7"/>
  <circle cx="250" cy="60" r="1.5" fill="#f8fafc" opacity="0.5"/>
  <circle cx="10" cy="150" r="1" fill="#f8fafc" opacity="0.6"/>
  <circle cx="200" cy="180" r="1" fill="#f8fafc" opacity="0.5"/>
  <circle cx="60" cy="200" r="1.5" fill="#f8fafc" opacity="0.4"/>
  <rect x="118" y="90" width="20" height="130" rx="4" fill="url(#galaxyTrunk)"/>
  <rect x="70" y="120" width="48" height="6" rx="2" fill="#7c3aed" transform="rotate(-25 70 120)"/>
  <rect x="138" y="110" width="48" height="6" rx="2" fill="#7c3aed" transform="rotate(20 138 110)"/>
  <circle cx="128" cy="65" r="40" fill="#7c3aed" opacity="0.3" filter="url(#galaxyGlow)"/>
  <circle cx="128" cy="65" r="28" fill="#8b5cf6" opacity="0.4"/>
  <circle cx="128" cy="65" r="18" fill="#a78bfa" opacity="0.5"/>
  <circle cx="128" cy="65" r="10" fill="#c4b5fd" opacity="0.7"/>
  <circle cx="128" cy="65" r="5" fill="#ede9fe" opacity="0.9" filter="url(#starGlow2)"/>
  <circle cx="88" cy="50" r="6" fill="#a78bfa" opacity="0.6" filter="url(#starGlow2)"/>
  <circle cx="168" cy="55" r="6" fill="#a78bfa" opacity="0.6" filter="url(#starGlow2)"/>
  <circle cx="95" cy="80" r="4" fill="#c4b5fd" opacity="0.5" filter="url(#starGlow2)"/>
  <circle cx="160" cy="75" r="4" fill="#c4b5fd" opacity="0.5" filter="url(#starGlow2)"/>
  <circle cx="110" cy="45" r="3" fill="#ede9fe" opacity="0.6" filter="url(#starGlow2)"/>
  <circle cx="145" cy="50" r="3" fill="#ede9fe" opacity="0.6" filter="url(#starGlow2)"/>
  <line x1="128" y1="65" x2="88" y2="50" stroke="#a78bfa" stroke-width="1" opacity="0.4"/>
  <line x1="128" y1="65" x2="168" y2="55" stroke="#a78bfa" stroke-width="1" opacity="0.4"/>
  <line x1="128" y1="65" x2="95" y2="80" stroke="#c4b5fd" stroke-width="1" opacity="0.3"/>
  <line x1="128" y1="65" x2="160" y2="75" stroke="#c4b5fd" stroke-width="1" opacity="0.3"/>
  <line x1="88" y1="50" x2="95" y2="80" stroke="#8b5cf6" stroke-width="0.5" opacity="0.3"/>
  <line x1="168" y1="55" x2="160" y2="75" stroke="#8b5cf6" stroke-width="0.5" opacity="0.3"/>
</svg>